<svg width="34" height="25" viewBox="0 0 34 25" fill="none" xmlns="http://www.w3.org/2000/svg">
<path d="M27.9578 2.6344C25.8622 1.70976 23.6151 1.02853 21.2655 0.638355C21.2228 0.630825 21.18 0.649644 21.158 0.687281C20.869 1.18158 20.5488 1.82643 20.3247 2.33328C17.7976 1.96947 15.2835 1.96947 12.8082 2.33328C12.584 1.81517 12.2522 1.18158 11.9619 0.687281C11.9399 0.650899 11.8972 0.632081 11.8544 0.638355C9.50612 1.02728 7.25897 1.70851 5.16213 2.6344C5.14397 2.64193 5.12841 2.65449 5.11809 2.67078C0.855707 8.79442 -0.311938 14.7675 0.260869 20.6666C0.263461 20.6955 0.280308 20.7231 0.303636 20.7406C3.11583 22.7266 5.83993 23.9323 8.51343 24.7314C8.55622 24.744 8.60156 24.7289 8.62879 24.695C9.2612 23.8645 9.82495 22.9888 10.3083 22.0679C10.3368 22.014 10.3096 21.95 10.2513 21.9287C9.35711 21.6025 8.50565 21.2048 7.68662 20.7532C7.62183 20.7168 7.61665 20.6277 7.67624 20.585C7.8486 20.4608 8.021 20.3316 8.18558 20.2011C8.21535 20.1773 8.25685 20.1723 8.29185 20.1873C13.6726 22.5497 19.4979 22.5497 24.8151 20.1873C24.8501 20.171 24.8916 20.176 24.9227 20.1999C25.0873 20.3303 25.2596 20.4608 25.4333 20.585C25.4929 20.6277 25.489 20.7168 25.4242 20.7532C24.6052 21.2136 23.7537 21.6025 22.8582 21.9274C22.7999 21.9488 22.774 22.014 22.8025 22.0679C23.2963 22.9876 23.86 23.8633 24.4808 24.6938C24.5067 24.7289 24.5533 24.744 24.5961 24.7314C27.2826 23.9323 30.0067 22.7266 32.8189 20.7406C32.8435 20.7231 32.859 20.6967 32.8616 20.6678C33.5472 13.8479 31.7134 7.92375 28.0005 2.67203C27.9915 2.65449 27.9759 2.64193 27.9578 2.6344ZM11.1118 17.0747C9.49186 17.0747 8.15705 15.6445 8.15705 13.888C8.15705 12.1316 9.46598 10.7014 11.1118 10.7014C12.7706 10.7014 14.0925 12.1442 14.0666 13.888C14.0666 15.6445 12.7576 17.0747 11.1118 17.0747ZM22.0366 17.0747C20.4167 17.0747 19.0819 15.6445 19.0819 13.888C19.0819 12.1316 20.3908 10.7014 22.0366 10.7014C23.6954 10.7014 25.0173 12.1442 24.9914 13.888C24.9914 15.6445 23.6954 17.0747 22.0366 17.0747Z" fill="#E7E6E0"/>
</svg>
