<svg width="34" height="31" viewBox="0 0 34 31" fill="none" xmlns="http://www.w3.org/2000/svg">
<path fill-rule="evenodd" clip-rule="evenodd" d="M17.2536 0.0195312C13.351 0.0214784 9.57635 1.35068 6.60462 3.76947C3.63289 6.18825 1.65787 9.53889 1.03269 13.2223C0.407512 16.9056 1.17295 20.6815 3.19214 23.8748C5.21133 27.068 8.3526 29.4704 12.0543 30.6524C12.8709 30.7982 13.1785 30.3114 13.1785 29.8976C13.1785 29.4837 13.1622 28.2838 13.1567 26.972C8.58351 27.922 7.61715 25.1162 7.61715 25.1162C6.87128 23.2942 5.79331 22.8152 5.79331 22.8152C4.30156 21.8418 5.90492 21.86 5.90492 21.86C7.55727 21.9719 8.42564 23.4816 8.42564 23.4816C9.89016 25.884 12.272 25.189 13.2085 24.783C13.3555 23.7653 13.7828 23.0729 14.2538 22.6799C10.6006 22.2843 6.76239 20.936 6.76239 14.913C6.73975 13.351 7.34596 11.8404 8.45558 10.6938C8.28681 10.2982 7.72331 8.70002 8.61618 6.52925C8.61618 6.52925 9.99633 6.10759 13.1377 8.14041C15.8322 7.43586 18.675 7.43586 21.3695 8.14041C24.5081 6.10759 25.8855 6.52925 25.8855 6.52925C26.7811 8.69481 26.2177 10.293 26.0489 10.6938C27.162 11.8406 27.7695 13.3538 27.7448 14.9182C27.7448 20.9542 23.8984 22.2843 20.2398 22.6721C20.8278 23.1614 21.3532 24.1167 21.3532 25.5847C21.3532 27.6878 21.3341 29.3796 21.3341 29.8976C21.3341 30.3166 21.6308 30.806 22.4638 30.6524C26.1659 29.4703 29.3075 27.0675 31.3266 23.8737C33.3458 20.6799 34.1108 16.9034 33.4849 13.2197C32.859 9.53599 30.883 6.18531 27.9103 3.76694C24.9376 1.34857 21.1621 0.0202442 17.259 0.0195312H17.2536Z" fill="#E7E6E0"/>
<path d="M7.03832 22.5876C7.00293 22.6657 6.87226 22.6892 6.7661 22.6345C6.65994 22.5798 6.581 22.4783 6.61911 22.3976C6.65722 22.3169 6.78516 22.2961 6.89133 22.3508C6.99749 22.4054 7.07915 22.5096 7.03832 22.5876Z" fill="#E7E6E0"/>
<path d="M7.70686 23.2997C7.65049 23.3269 7.58599 23.3345 7.52442 23.3212C7.46284 23.3079 7.40802 23.2745 7.36932 23.2268C7.26315 23.1175 7.24136 22.9666 7.32303 22.8989C7.40469 22.8312 7.5517 22.8625 7.65786 22.9718C7.76403 23.0811 7.78853 23.2321 7.70686 23.2997Z" fill="#E7E6E0"/>
<path d="M8.35315 24.2036C8.25243 24.2713 8.08093 24.2036 7.98565 24.0683C7.9593 24.044 7.93836 24.0149 7.92404 23.9827C7.90973 23.9505 7.90234 23.9158 7.90234 23.8809C7.90234 23.8459 7.90973 23.8112 7.92404 23.779C7.93836 23.7468 7.9593 23.7177 7.98565 23.6934C8.08637 23.6284 8.25788 23.6934 8.35315 23.8262C8.44843 23.9589 8.45115 24.1359 8.35315 24.2036V24.2036Z" fill="#E7E6E0"/>
<path d="M9.23012 25.0754C9.14029 25.1717 8.95791 25.1457 8.80819 25.0156C8.65847 24.8854 8.62308 24.7084 8.71291 24.6147C8.80274 24.521 8.98512 24.5471 9.14029 24.6746C9.29545 24.8021 9.3254 24.9817 9.23012 25.0754V25.0754Z" fill="#E7E6E0"/>
<path d="M10.4667 25.5872C10.4259 25.7095 10.2408 25.7642 10.0556 25.7121C9.87054 25.6601 9.74805 25.5143 9.78343 25.3894C9.81882 25.2645 10.0067 25.2072 10.1945 25.2645C10.3823 25.3217 10.5021 25.4597 10.4667 25.5872Z" fill="#E7E6E0"/>
<path d="M11.8105 25.6744C11.8105 25.802 11.6581 25.9113 11.4621 25.9139C11.2661 25.9165 11.1055 25.8124 11.1055 25.6848C11.1055 25.5573 11.2579 25.448 11.4539 25.4454C11.6499 25.4428 11.8105 25.5443 11.8105 25.6744Z" fill="#E7E6E0"/>
<path d="M13.0617 25.4766C13.0862 25.6041 12.9501 25.7368 12.7541 25.7681C12.5581 25.7993 12.3866 25.7238 12.3621 25.5989C12.3376 25.474 12.4792 25.3386 12.6697 25.3048C12.8603 25.2709 13.0372 25.349 13.0617 25.4766Z" fill="#E7E6E0"/>
</svg>
