<svg width="33" height="32" viewBox="0 0 33 32" fill="none" xmlns="http://www.w3.org/2000/svg">
<path d="M16.4391 2.84676C20.8314 2.84676 21.3516 2.86529 23.079 2.93939C24.6843 3.00732 25.5512 3.26668 26.1292 3.48281C26.8933 3.76687 27.4456 4.11268 28.0171 4.66227C28.595 5.21804 28.9482 5.74293 29.2436 6.47778C29.4684 7.03355 29.7381 7.87337 29.8087 9.411C29.8858 11.0783 29.905 11.5785 29.905 15.7961C29.905 20.02 29.8858 20.5202 29.8087 22.1813C29.7381 23.7251 29.4684 24.5587 29.2436 25.1145C28.9482 25.8494 28.5886 26.3804 28.0171 26.93C27.4392 27.4858 26.8933 27.8254 26.1292 28.1095C25.5512 28.3256 24.6779 28.585 23.079 28.6529C21.3451 28.727 20.825 28.7455 16.4391 28.7455C12.0468 28.7455 11.5266 28.727 9.79925 28.6529C8.19387 28.585 7.32696 28.3256 6.74902 28.1095C5.98486 27.8254 5.43261 27.4796 4.86109 26.93C4.28316 26.3743 3.92997 25.8494 3.63458 25.1145C3.40983 24.5587 3.14013 23.7189 3.06949 22.1813C2.99243 20.514 2.97317 20.0138 2.97317 15.7961C2.97317 11.5723 2.99243 11.0721 3.06949 9.411C3.14013 7.8672 3.40983 7.03355 3.63458 6.47778C3.92997 5.74293 4.28958 5.21186 4.86109 4.66227C5.43903 4.1065 5.98486 3.76687 6.74902 3.48281C7.32696 3.26668 8.20029 3.00732 9.79925 2.93939C11.5266 2.86529 12.0468 2.84676 16.4391 2.84676ZM16.4391 0C11.9761 0 11.4175 0.0185256 9.6644 0.0926279C7.91774 0.16673 6.71692 0.438439 5.67663 0.827476C4.59139 1.23504 3.67311 1.77228 2.76126 2.65533C1.84298 3.53221 1.2843 4.41526 0.860484 5.4527C0.455928 6.45925 0.173381 7.60784 0.0963229 9.28749C0.0192646 10.9795 0 11.5167 0 15.8085C0 20.1003 0.0192646 20.6375 0.0963229 22.3233C0.173381 24.003 0.455928 25.1577 0.860484 26.1581C1.2843 27.2017 1.84298 28.0848 2.76126 28.9617C3.67311 29.8385 4.59139 30.382 5.67021 30.7833C6.71692 31.1724 7.91132 31.4441 9.65797 31.5182C11.411 31.5923 11.9697 31.6108 16.4327 31.6108C20.8956 31.6108 21.4543 31.5923 23.2074 31.5182C24.954 31.4441 26.1549 31.1724 27.1952 30.7833C28.274 30.382 29.1923 29.8385 30.1041 28.9617C31.016 28.0848 31.5811 27.2017 31.9985 26.1643C32.403 25.1577 32.6856 24.0092 32.7626 22.3295C32.8397 20.6437 32.8589 20.1064 32.8589 15.8147C32.8589 11.5229 32.8397 10.9857 32.7626 9.29984C32.6856 7.62019 32.403 6.46543 31.9985 5.46505C31.5939 4.41526 31.0352 3.53221 30.117 2.65533C29.2051 1.77846 28.2868 1.23504 27.208 0.833651C26.1613 0.444614 24.9669 0.172905 23.2202 0.0988031C21.4607 0.0185256 20.9021 0 16.4391 0Z" fill="#E7E6E0"/>
<path d="M16.4365 7.6875C11.7745 7.6875 7.99219 11.3247 7.99219 15.8079C7.99219 20.2911 11.7745 23.9283 16.4365 23.9283C21.0985 23.9283 24.8808 20.2911 24.8808 15.8079C24.8808 11.3247 21.0985 7.6875 16.4365 7.6875ZM16.4365 21.0753C13.412 21.0753 10.9589 18.7164 10.9589 15.8079C10.9589 12.8994 13.412 10.5404 16.4365 10.5404C19.461 10.5404 21.914 12.8994 21.914 15.8079C21.914 18.7164 19.461 21.0753 16.4365 21.0753Z" fill="#E7E6E0"/>
<path d="M27.1889 7.36844C27.1889 8.41823 26.3027 9.26423 25.2175 9.26423C24.1258 9.26423 23.2461 8.41205 23.2461 7.36844C23.2461 6.31866 24.1323 5.47266 25.2175 5.47266C26.3027 5.47266 27.1889 6.32483 27.1889 7.36844Z" fill="#E7E6E0"/>
</svg>
