<svg width="34" height="32" viewBox="0 0 34 32" fill="none" xmlns="http://www.w3.org/2000/svg">
<path d="M30.8585 0.121094H2.8414C1.4993 0.121094 0.414062 1.14 0.414062 2.39974V29.4533C0.414062 30.713 1.4993 31.7381 2.8414 31.7381H30.8585C32.2006 31.7381 33.2923 30.713 33.2923 29.4594V2.39974C33.2923 1.14 32.2006 0.121094 30.8585 0.121094ZM10.1684 27.0635H5.288V11.9713H10.1684V27.0635ZM7.72818 9.91495C6.16133 9.91495 4.89629 8.69844 4.89629 7.19787C4.89629 5.69729 6.16133 4.48078 7.72818 4.48078C9.28861 4.48078 10.5536 5.69729 10.5536 7.19787C10.5536 8.69226 9.28861 9.91495 7.72818 9.91495ZM28.4312 27.0635H23.5572V19.7273C23.5572 17.9798 23.5251 15.7258 21.0207 15.7258C18.4842 15.7258 18.0989 17.6339 18.0989 19.6038V27.0635H13.2314V11.9713H17.9063V14.0338H17.9705C18.6191 12.8482 20.2116 11.5946 22.5812 11.5946C27.5193 11.5946 28.4312 14.7193 28.4312 18.7825V27.0635V27.0635Z" fill="#E7E6E0"/>
</svg>
