<svg width="39" height="21" viewBox="0 0 39 21" fill="none" xmlns="http://www.w3.org/2000/svg">
<path d="M10.1836 8.14239L10.2389 8.08705V2.22044C10.2389 1.57474 10.4511 1.06741 10.8754 0.69844C11.2997 0.311022 11.9085 0.117313 12.7018 0.117313C14.3437 0.117313 15.1646 0.818355 15.1646 2.22044V12.7084C15.1646 13.6493 15.0355 14.544 14.7772 15.3926C14.5374 16.2413 14.1407 17.0622 13.5873 17.8555C13.0523 18.6303 12.2775 19.2576 11.2628 19.7373C10.2481 20.1985 9.04897 20.4291 7.66534 20.4291C5.52531 20.4291 3.81883 19.8295 2.54589 18.6303C1.29139 17.4127 0.664145 15.8815 0.664145 14.0367C0.664145 12.0258 1.30984 10.43 2.60123 9.2493C3.89263 8.05015 5.42385 7.45058 7.1949 7.45058C8.46784 7.45058 9.46406 7.68118 10.1836 8.14239ZM7.88672 11.2417C7.16723 11.2417 6.57688 11.5 6.11567 12.0166C5.6729 12.5331 5.45152 13.1512 5.45152 13.8706C5.45152 14.7377 5.65445 15.4203 6.06032 15.9184C6.48463 16.3981 7.08421 16.6379 7.85905 16.6379C8.57854 16.6379 9.15966 16.3889 9.60242 15.8907C10.0452 15.3742 10.2666 14.7008 10.2666 13.8706C10.2666 13.1512 10.0544 12.5331 9.6301 12.0166C9.22423 11.5 8.6431 11.2417 7.88672 11.2417ZM25.3702 18.2153V13.2342C25.3702 12.6623 25.2411 12.2011 24.9828 11.8505C24.743 11.4816 24.4201 11.2971 24.0143 11.2971C22.9996 11.2971 22.4923 11.9889 22.4923 13.3725V18.1876C22.4923 18.9255 22.3078 19.4605 21.9388 19.7926C21.5883 20.1062 20.9334 20.263 19.9741 20.263C19.1808 20.263 18.5812 20.0785 18.1753 19.7096C17.7879 19.3406 17.5942 18.8425 17.5942 18.2153V13.2065C17.5942 11.2879 18.1753 9.83965 19.3376 8.86188C20.5183 7.88412 21.9573 7.39523 23.6545 7.39523C25.4809 7.39523 26.883 8.01325 27.8608 9.2493C28.8939 8.01325 30.379 7.39523 32.3161 7.39523C33.958 7.39523 35.3232 7.88412 36.4116 8.86188C37.5001 9.83965 38.0443 11.2971 38.0443 13.2342V18.1876C38.0443 19.5712 37.2234 20.263 35.5815 20.263C33.958 20.263 33.1463 19.5712 33.1463 18.1876V13.2618C33.1463 11.9151 32.6758 11.2417 31.735 11.2417C31.2922 11.2417 30.9325 11.4262 30.6557 11.7952C30.379 12.1457 30.2406 12.6346 30.2406 13.2618V18.1876C30.2406 18.8333 30.0654 19.3406 29.7149 19.7096C29.3828 20.0785 28.7371 20.263 27.7778 20.263C26.1727 20.263 25.3702 19.5804 25.3702 18.2153Z" fill="url(#paint0_linear_757_6311)"/>
<defs>
<linearGradient id="paint0_linear_757_6311" x1="18.3333" y1="9.08783" x2="18.4699" y2="26.5061" gradientUnits="userSpaceOnUse">
<stop stop-color="white"/>
<stop offset="1" stop-color="white" stop-opacity="0.5"/>
</linearGradient>
</defs>
</svg>
